<svg xmlns="http://www.w3.org/2000/svg" width="250" height="250" viewBox="0 0 250 250" version="1.1"><path d="M 111.269 0.693 C 112.242 0.947, 113.592 0.930, 114.269 0.656 C 114.946 0.382, 114.150 0.175, 112.500 0.195 C 110.850 0.215, 110.296 0.439, 111.269 0.693 M 136.250 0.689 C 137.213 0.941, 138.787 0.941, 139.750 0.689 C 140.713 0.438, 139.925 0.232, 138 0.232 C 136.075 0.232, 135.287 0.438, 136.250 0.689 M 103.813 1.683 C 104.534 1.972, 105.397 1.936, 105.729 1.604 C 106.061 1.272, 105.471 1.036, 104.417 1.079 C 103.252 1.127, 103.015 1.364, 103.813 1.683 M 144.813 1.683 C 145.534 1.972, 146.397 1.936, 146.729 1.604 C 147.061 1.272, 146.471 1.036, 145.417 1.079 C 144.252 1.127, 144.015 1.364, 144.813 1.683 M 98.813 2.683 C 99.534 2.972, 100.397 2.936, 100.729 2.604 C 101.061 2.272, 100.471 2.036, 99.417 2.079 C 98.252 2.127, 98.015 2.364, 98.813 2.683 M 149.813 2.683 C 150.534 2.972, 151.397 2.936, 151.729 2.604 C 152.061 2.272, 151.471 2.036, 150.417 2.079 C 149.252 2.127, 149.015 2.364, 149.813 2.683 M 108.500 9.116 C 83.324 12.774, 60.720 24.182, 42.451 42.451 C 8.393 76.509, -1.349 126.447, 17.395 170.891 C 20.479 178.203, 29.476 194, 30.557 194 C 30.785 194, 32.381 191.187, 34.104 187.750 C 42.665 170.666, 57.597 155.705, 74.500 147.273 C 81.746 143.658, 91.406 140.473, 99.434 139.051 C 109.013 137.354, 147.674 137.711, 156.792 139.580 C 182.492 144.848, 204.962 161.386, 217.486 184.250 C 219.520 187.963, 221.347 191, 221.548 191 C 221.748 191, 223.771 187.817, 226.043 183.927 C 252.796 138.119, 245.214 80.115, 207.549 42.451 C 181.438 16.340, 144.452 3.892, 108.500 9.116 M 177.083 11.377 C 178.106 12.303, 186 15.989, 186 15.541 C 186 14.972, 178.453 11, 177.373 11 C 176.985 11, 176.854 11.170, 177.083 11.377 M 192.500 19.610 C 193.050 20.148, 196.953 23.177, 201.174 26.341 C 219.521 40.098, 234.210 60.310, 242.549 83.273 C 244.392 88.348, 245.923 91.950, 245.950 91.279 C 246.049 88.870, 239.990 73.659, 235.942 66.152 C 227.917 51.270, 216.040 36.937, 203.590 27.111 C 197.832 22.567, 190.340 17.499, 192.500 19.610 M 49.872 24.750 C 48.629 26.336, 48.664 26.371, 50.250 25.128 C 51.212 24.373, 52 23.585, 52 23.378 C 52 22.555, 51.179 23.084, 49.872 24.750 M 45.405 28.250 C 43.500 30.500, 43.500 30.500, 45.750 28.595 C 47.864 26.805, 48.455 26, 47.655 26 C 47.465 26, 46.453 27.012, 45.405 28.250 M 36.453 36.250 C 32.500 40.500, 32.500 40.500, 36.750 36.547 C 40.702 32.871, 41.460 32, 40.703 32 C 40.540 32, 38.627 33.913, 36.453 36.250 M 117.715 37.006 C 95.260 40.940, 79.118 63.390, 82.793 85.573 C 88.523 120.151, 130.304 133.898, 154.863 109.284 C 170.890 93.221, 171.940 69.277, 157.404 51.359 C 148.733 40.670, 131.783 34.541, 117.715 37.006 M 27.872 45.750 C 26.629 47.336, 26.664 47.371, 28.250 46.128 C 29.916 44.821, 30.445 44, 29.622 44 C 29.415 44, 28.627 44.788, 27.872 45.750 M 246.079 94.583 C 246.127 95.748, 246.364 95.985, 246.683 95.188 C 246.972 94.466, 246.936 93.603, 246.604 93.271 C 246.272 92.939, 246.036 93.529, 246.079 94.583 M 247.683 101 C 248.016 103.475, 248.580 107.975, 248.937 111 C 249.475 115.567, 249.724 116.094, 250.405 114.107 C 250.880 112.722, 250.775 110.193, 250.156 108.107 C 249.568 106.123, 248.635 102.700, 248.082 100.500 C 247.078 96.500, 247.078 96.500, 247.683 101 M 2.079 99.583 C 2.127 100.748, 2.364 100.985, 2.683 100.188 C 2.972 99.466, 2.936 98.603, 2.604 98.271 C 2.272 97.939, 2.036 98.529, 2.079 99.583 M 1.079 104.583 C 1.127 105.748, 1.364 105.985, 1.683 105.188 C 1.972 104.466, 1.936 103.603, 1.604 103.271 C 1.272 102.939, 1.036 103.529, 1.079 104.583 M 249 137.390 C 249 143.075, 246.067 156.647, 242.858 165.814 C 227.541 209.560, 189.242 241.404, 143.500 248.425 C 138.550 249.185, 135.913 249.850, 137.640 249.903 C 139.366 249.956, 144.430 249.307, 148.892 248.461 C 186.757 241.278, 220.241 215.665, 237.737 180.500 C 242.404 171.120, 246.404 159.446, 248.538 148.975 C 251.109 136.364, 251.360 134, 250.132 134 C 249.509 134, 249 135.525, 249 137.390 M 1.079 145.583 C 1.127 146.748, 1.364 146.985, 1.683 146.188 C 1.972 145.466, 1.936 144.603, 1.604 144.271 C 1.272 143.939, 1.036 144.529, 1.079 145.583 M 2.079 150.583 C 2.127 151.748, 2.364 151.985, 2.683 151.188 C 2.972 150.466, 2.936 149.603, 2.604 149.271 C 2.272 148.939, 2.036 149.529, 2.079 150.583 M 11 177.383 C 11 178.456, 13.975 184, 14.551 184 C 14.826 184, 14.308 182.537, 13.399 180.750 C 11.542 177.100, 11 176.339, 11 177.383 M 23 198.378 C 23 198.585, 23.788 199.373, 24.750 200.128 C 26.336 201.371, 26.371 201.336, 25.128 199.750 C 23.821 198.084, 23 197.555, 23 198.378 M 27.500 204 C 28.495 205.100, 29.535 206, 29.810 206 C 30.085 206, 29.495 205.100, 28.500 204 C 27.505 202.900, 26.465 202, 26.190 202 C 25.915 202, 26.505 202.900, 27.500 204 M 35.500 212.856 C 41.257 218.870, 52.184 227.756, 58.500 231.560 C 63.185 234.382, 60.199 231.836, 52.500 226.445 C 48.650 223.748, 41.900 218.178, 37.500 214.065 C 30.076 207.125, 29.932 207.038, 35.500 212.856 M 62 233.496 C 62 234.164, 76.122 241.212, 76.567 240.766 C 76.767 240.567, 73.570 238.742, 69.465 236.710 C 65.359 234.679, 62 233.232, 62 233.496 M 78 241.453 C 78 242.335, 96.573 247.825, 101.500 248.400 C 105.240 248.835, 104.484 248.498, 98.500 247.062 C 94.100 246.005, 87.842 244.209, 84.593 243.071 C 78.192 240.827, 78 240.779, 78 241.453 M 108.750 249.706 C 109.987 249.944, 112.013 249.944, 113.250 249.706 C 114.487 249.467, 113.475 249.272, 111 249.272 C 108.525 249.272, 107.513 249.467, 108.750 249.706" stroke="none" fill="#dee1e3" fill-rule="evenodd"/><path d="M 112 0.623 C 56.407 7.705, 14.140 46.430, 2.398 101.040 C -0.124 112.770, -0.124 137.230, 2.398 148.960 C 14.764 206.473, 61.414 246.594, 119.500 249.672 C 167.545 252.218, 214.923 224.274, 236.776 180.500 C 243.086 167.861, 249 147.004, 249 137.390 C 249 135.525, 249.450 134, 250 134 C 250.603 134, 250.994 129.927, 250.985 123.750 C 250.974 116.763, 250.661 113.977, 250 115 C 249.276 116.120, 249.027 115.578, 249.015 112.860 C 248.990 106.859, 246.096 93.432, 242.835 84.186 C 228.173 42.614, 194.370 12.693, 151 2.896 C 142.668 1.014, 119.521 -0.335, 112 0.623 M 108.500 9.116 C 83.324 12.774, 60.720 24.182, 42.451 42.451 C 8.393 76.509, -1.349 126.447, 17.395 170.891 C 20.479 178.203, 29.476 194, 30.557 194 C 30.785 194, 32.381 191.187, 34.104 187.750 C 42.665 170.666, 57.597 155.705, 74.500 147.273 C 81.746 143.658, 91.406 140.473, 99.434 139.051 C 109.013 137.354, 147.674 137.711, 156.792 139.580 C 182.492 144.848, 204.962 161.386, 217.486 184.250 C 219.520 187.963, 221.347 191, 221.548 191 C 221.748 191, 223.771 187.817, 226.043 183.927 C 252.796 138.119, 245.214 80.115, 207.549 42.451 C 181.438 16.340, 144.452 3.892, 108.500 9.116 M 117.715 37.006 C 95.260 40.940, 79.118 63.390, 82.793 85.573 C 88.523 120.151, 130.304 133.898, 154.863 109.284 C 170.890 93.221, 171.940 69.277, 157.404 51.359 C 148.733 40.670, 131.783 34.541, 117.715 37.006 M 0.370 125 C 0.370 130.775, 0.535 133.137, 0.737 130.250 C 0.939 127.362, 0.939 122.638, 0.737 119.750 C 0.535 116.862, 0.370 119.225, 0.370 125" stroke="none" fill="#545454" fill-rule="evenodd"/></svg>